<?xml version="1.0" encoding="utf-8"?>
<!-- Generator: Adobe Illustrator 24.1.1, SVG Export Plug-In . SVG Version: 6.00 Build 0)  -->
<svg version="1.1" id="Layer_1" xmlns="http://www.w3.org/2000/svg" xmlns:xlink="http://www.w3.org/1999/xlink" x="0px" y="0px"
	 viewBox="0 0 6281 6281" style="enable-background:new 0 0 6281 6281;" xml:space="preserve">
<style type="text/css">
	.st0{opacity:0.5;}
	.st1{fill:#FFFFFF;}
</style>
<g class="st0">
	<path class="st1" d="M670.1,5688l11.6,50.9h3.9l10.9-49.5l204-689.3h198.2l-318.6,937.1H587.1L269.1,5000h198.2L670.1,5688z"/>
	<path class="st1" d="M1766.8,5525h-388.1V5792h453.7v145h-641.7V5000h640.4v145h-452.5v234.8h388.1V5525z"/>
	<path class="st1" d="M2135.6,5563v374.1h-187.9V5000H2301c106.8,0,190.4,24.4,250.7,73.1c60.3,48.7,90.4,116.7,90.4,203.8
		c0,48.5-12.7,90.2-38,124.9c-25.3,34.8-62.4,62.9-111.3,84.4c55.4,16.3,95.1,43.5,119.4,81.7c24.3,38.2,36.4,85.3,36.4,141.5v68.8
		c0,26.1,3.5,53.5,10.6,82c7.1,28.5,19.2,49.6,36.4,63.4v13.5h-193.7c-17.2-13.7-28.3-36.6-33.5-68.8c-5.1-32.1-7.7-62.6-7.7-91.3
		v-66.2c0-46.7-12.8-83-38.3-109c-25.5-25.9-61.5-38.9-107.8-38.9H2135.6z M2135.6,5417.9h162.2c52.8,0,92.1-11.1,118.1-33.5
		c26-22.3,38.9-55.3,38.9-99.1c0-42.9-13-77-38.9-102.3c-26-25.3-64.3-38-114.9-38h-165.4L2135.6,5417.9L2135.6,5417.9z"/>
	<path class="st1" d="M3325,5692.6c0-35.9-12.8-64.8-38.3-86.6c-25.5-21.8-70.3-42.4-134.2-61.6c-111.6-32.2-195.9-70.5-252.9-114.7
		c-57.1-44.3-85.6-104.9-85.6-181.8c0-76.9,32.7-139.7,98.1-188.5c65.4-48.8,149-73.1,250.7-73.1c103,0,186.9,27.4,251.7,82.1
		c64.8,54.7,96.1,122.2,94,202.4l-1.3,3.9H3325c0-42.7-14.5-77.2-43.4-103.7c-29-26.4-69.6-39.6-121.9-39.6
		c-50.2,0-89.1,11.1-116.5,33.2c-27.5,22.2-41.2,50.5-41.2,85c0,31.5,14.7,57.4,44.1,77.6c29.4,20.2,80.1,41.6,152.2,64.2
		c103.4,28.8,181.7,66.8,234.9,114c53.2,47.2,79.8,109.3,79.8,186.1c0,80.3-31.7,143.6-94.9,190s-146.9,69.5-250.7,69.5
		c-102.1,0-191.2-26.3-267.1-78.8s-112.9-126.3-110.7-221.1l1.3-3.9h182.8c0,55.6,17.1,96.4,51.2,122.2
		c34.1,25.9,81.6,38.8,142.6,38.8c51.1,0,90.1-10.5,117.1-31.4C3311.4,5755.7,3325,5727.7,3325,5692.6z"/>
	<path class="st1" d="M4157.8,5734.5h-328.9l-63.7,202.6h-189.9l322.5-937.1h192.4l321.2,937.1h-189.9L4157.8,5734.5z
		 M3875.2,5589.4h236.2l-115.8-369.9h-3.9L3875.2,5589.4z"/>
	<path class="st1" d="M5206.2,5617.9l1.3,3.9c1.7,100.8-29.1,180.9-92.4,240.2c-63.3,59.3-151.1,88.9-263.6,88.9
		c-112.9,0-204.4-36.3-274.8-108.8s-105.5-165.9-105.5-280.1v-186.1c0-113.8,34.3-207.1,103-280.1c68.6-73,157.9-109.5,267.7-109.5
		c115.8,0,206.4,29.8,271.6,89.3s97,140.5,95.3,243.1l-1.3,3.9h-182.8c0-61.8-14.8-109.1-44.4-141.9
		c-29.6-32.8-75.7-49.2-138.4-49.2c-56.2,0-100.9,22.8-133.9,68.5c-33,45.6-49.5,103.9-49.5,174.6v187.1
		c0,71.6,17.4,130.3,52.1,175.9s81.7,68.5,141,68.5c58.8,0,102.2-15.8,130.3-47.3c28.1-31.5,42.2-78.4,42.2-140.6L5206.2,5617.9
		L5206.2,5617.9z"/>
	<path class="st1" d="M5917.4,5525h-388.1V5792H5983v145h-641.7V5000h640.4v145h-452.5v234.8h388.1L5917.4,5525L5917.4,5525z"/>
</g>
<g>
	<path class="st1" d="M5272,1690.4c-13.3-1.9-27.8,6.2-35.4,20.3c-33.8,52.7-75.3,110.4-126.1,169.8
		c-66.4,77.7-133,139.8-192.4,188.7v-504.5h-514.3c-17.7,90.3-35.5,180.5-53.2,270.8c-17-107.1-16.7-212.8-19.5-318
		c-0.3,0-0.7,0-1,0.1c-36.3,1.8-72.7,0.4-108.9-1.2c-2.1-0.1-4.2-0.2-6.3-0.3c3.7,100.8,2.4,202.1,0.2,303.3
		c-9.1,1.7-18.2,3.3-27.3,5c-16.5-86.6-33-173.1-49.5-259.7h-932.5c-16.5,89.9-32.9,179.9-49.4,269.8c-2.7,2.4-5.1,3.2-7.2,3
		c-7.4-0.9-15.2-15.9-19.8-68c4.5-104.6,9.1-209.2,13.6-313.7c-5.5,0.4-11,0.7-16.5,1c-35.9,1.9-72.1,2.2-108.1-0.5
		c-2.3,65.2-4.3,130.4-7.6,195.3c-2.9,56.7-0.4,113.7-0.4,170.6c-8.6,0.3-17.3,0.6-26,0.8c-18-86.1-36.1-172.2-54.1-258.3
		c-181.2-0.2-362.4-0.3-543.5-0.5c-18.6,498.5-37.3,997.1-55.9,1495.6c-2.9,34.1-11.9,58.2-20,61.8c-10.9,4.9-17.1,1.5-17.1,1.5l0,0
		c-11.9-4.6-15.3-18.5-15.8-20.4c-21-512.9-41.9-1025.7-62.9-1538.6h-579.8v1466.3c-53.7-9.8-123.5-31.1-192.6-78.1
		c-31.8-21.6-77.3-53.2-113.8-110.8c0,0-43.9-69.1-51.7-153.8c-20.7-225.9,173-543.2,263.2-655.2c15.7-19.5,13.4-47.1-3-61.8
		c-13.4-12-34.4-13.9-51.6-4.1c-40.5,30.5-97,76.4-157.5,138.9c-61.9,63.9-495.4,511.5-346,887.7c75.5,190.2,273,299.9,316.4,320
		c68.1,31.6,140.3,56.3,212.9,75.8c334.4,90.1,672.3,77.9,1010.5,25.9c1058.1-163,1995.3-714.4,2330.9-1025.8
		c284.8-264.3,412.7-563.1,412.7-563.1c16.3-38,27.9-69.6,34.7-89C5305.2,1713.8,5290.1,1693,5272,1690.4z"/>
	<path class="st1" d="M2307.6,4630.1c-227.2-107.9-445.2-211.5-667.5-317.1c0-229.4,0-453.9,0-687.1
		c1234.9,77.5,2308.2-319.6,3272.1-1082.2c0,413.7,0,818.2,0,1242.6C4047.5,4066.5,3180.2,4347.5,2307.6,4630.1z"/>
	<g>
		<path class="st1" d="M4350.5,2144h-134.6V1000.7c0-295.5-240.4-536-536-536c-294.1,0-533.7,238.2-536,531.8h0.1V2144h-134.6
			V1000.7h-0.2c0-90.5,17.7-178.3,52.7-261c33.8-79.9,82.1-151.6,143.7-213.1c61.6-61.6,133.3-109.9,213.1-143.7
			c82.7-35,170.6-52.7,261.1-52.7s178.3,17.7,261.1,52.7c79.9,33.8,151.6,82.1,213.1,143.7c61.6,61.6,109.9,133.3,143.7,213.1
			c34.5,81.4,52.2,167.8,52.7,256.9h0L4350.5,2144L4350.5,2144z"/>
	</g>
	<g>
		<path class="st1" d="M3111.7,580.8c-28.2,0.2-224.5,4.7-355.9,166.2c-91.3,112.3-99,236.2-99.8,277.9c0,0,0.1,0,0.1,0v493.6
			h-134.6v-490h-0.1c0-78.6,15.4-154.9,45.8-226.7c29.3-69.4,71.3-131.6,124.8-185.1s115.8-95.5,185.1-124.8
			c29.6-12.5,59.9-22.5,90.8-29.9c27.2-6.5,75.2-15.9,135.9-15.9c46.5,0,87.8,5.5,122.6,12.9c-18.2,15.3-37.6,33.2-57.4,53.9
			C3146.4,536.4,3127.5,559.5,3111.7,580.8z"/>
		<path class="st1" d="M3447.5,558.2c19,14,42.9,33.2,68.1,58.5c38.4,38.4,63.7,74.4,78.2,96.8c18,27.9,33.6,57.4,46.6,88.3
			c29.9,70.8,45.3,145.8,45.8,223.1h0v484.4h-134.6v-480.8c0-40.5-5.5-132.9-63.4-229.4c-52.9-88.2-122.8-135.3-157.6-155.7
			c17.3-16.4,38.1-34.1,62.8-51.5C3412.3,578.5,3430.6,567.4,3447.5,558.2z"/>
	</g>
	<path class="st1" d="M3111.7,580.8"/>
</g>
<g>
	<path class="st1" d="M670.1,5688l11.6,50.9h3.9l10.9-49.5l204-689.3h198.2l-318.6,937.1H587.1L269.1,5000h198.2L670.1,5688z"/>
	<path class="st1" d="M1766.8,5525h-388.1V5792h453.7v145h-641.7V5000h640.4v145h-452.5v234.8h388.1V5525z"/>
	<path class="st1" d="M2135.6,5563v374.1h-187.9V5000H2301c106.8,0,190.4,24.4,250.7,73.1c60.3,48.7,90.4,116.7,90.4,203.8
		c0,48.5-12.7,90.2-38,124.9c-25.3,34.8-62.4,62.9-111.3,84.4c55.4,16.3,95.1,43.5,119.4,81.7c24.3,38.2,36.4,85.3,36.4,141.5v68.8
		c0,26.1,3.5,53.5,10.6,82c7.1,28.5,19.2,49.6,36.4,63.4v13.5h-193.7c-17.2-13.7-28.3-36.6-33.5-68.8c-5.1-32.1-7.7-62.6-7.7-91.3
		v-66.2c0-46.7-12.8-83-38.3-109c-25.5-25.9-61.5-38.9-107.8-38.9H2135.6z M2135.6,5417.9h162.2c52.8,0,92.1-11.1,118.1-33.5
		c26-22.3,38.9-55.3,38.9-99.1c0-42.9-13-77-38.9-102.3c-26-25.3-64.3-38-114.9-38h-165.4L2135.6,5417.9L2135.6,5417.9z"/>
	<path class="st1" d="M3325,5692.6c0-35.9-12.8-64.8-38.3-86.6c-25.5-21.8-70.3-42.4-134.2-61.6c-111.6-32.2-195.9-70.5-252.9-114.7
		c-57.1-44.3-85.6-104.9-85.6-181.8c0-76.9,32.7-139.7,98.1-188.5c65.4-48.8,149-73.1,250.7-73.1c103,0,186.9,27.4,251.7,82.1
		c64.8,54.7,96.1,122.2,94,202.4l-1.3,3.9H3325c0-42.7-14.5-77.2-43.4-103.7c-29-26.4-69.6-39.6-121.9-39.6
		c-50.2,0-89.1,11.1-116.5,33.2c-27.5,22.2-41.2,50.5-41.2,85c0,31.5,14.7,57.4,44.1,77.6c29.4,20.2,80.1,41.6,152.2,64.2
		c103.4,28.8,181.7,66.8,234.9,114c53.2,47.2,79.8,109.3,79.8,186.1c0,80.3-31.7,143.6-94.9,190s-146.9,69.5-250.7,69.5
		c-102.1,0-191.2-26.3-267.1-78.8s-112.9-126.3-110.7-221.1l1.3-3.9h182.8c0,55.6,17.1,96.4,51.2,122.2
		c34.1,25.9,81.6,38.8,142.6,38.8c51.1,0,90.1-10.5,117.1-31.4C3311.4,5755.7,3325,5727.7,3325,5692.6z"/>
	<path class="st1" d="M4157.8,5734.5h-328.9l-63.7,202.6h-189.9l322.5-937.1h192.4l321.2,937.1h-189.9L4157.8,5734.5z
		 M3875.2,5589.4h236.2l-115.8-369.9h-3.9L3875.2,5589.4z"/>
	<path class="st1" d="M5206.2,5617.9l1.3,3.9c1.7,100.8-29.1,180.9-92.4,240.2c-63.3,59.3-151.1,88.9-263.6,88.9
		c-112.9,0-204.4-36.3-274.8-108.8s-105.5-165.9-105.5-280.1v-186.1c0-113.8,34.3-207.1,103-280.1c68.6-73,157.9-109.5,267.7-109.5
		c115.8,0,206.4,29.8,271.6,89.3s97,140.5,95.3,243.1l-1.3,3.9h-182.8c0-61.8-14.8-109.1-44.4-141.9
		c-29.6-32.8-75.7-49.2-138.4-49.2c-56.2,0-100.9,22.8-133.9,68.5c-33,45.6-49.5,103.9-49.5,174.6v187.1
		c0,71.6,17.4,130.3,52.1,175.9s81.7,68.5,141,68.5c58.8,0,102.2-15.8,130.3-47.3c28.1-31.5,42.2-78.4,42.2-140.6L5206.2,5617.9
		L5206.2,5617.9z"/>
	<path class="st1" d="M5917.4,5525h-388.1V5792H5983v145h-641.7V5000h640.4v145h-452.5v234.8h388.1L5917.4,5525L5917.4,5525z"/>
</g>
</svg>
