<?xml version="1.0" encoding="utf-8"?>
<!-- Generator: Adobe Illustrator 24.1.1, SVG Export Plug-In . SVG Version: 6.00 Build 0)  -->
<svg version="1.1" id="Layer_1" xmlns="http://www.w3.org/2000/svg" xmlns:xlink="http://www.w3.org/1999/xlink" x="0px" y="0px"
	 viewBox="0 0 6281 6281" style="enable-background:new 0 0 6281 6281;" xml:space="preserve">
<style type="text/css">
	.st0{fill:#FEA200;}
</style>
<g>
	<path class="st0" d="M5973.69,2142.97c-17.68-2.48-36.88,8.28-47.09,26.93c-44.93,70.03-100.14,146.74-167.68,225.7
		c-88.29,103.21-176.75,185.85-255.71,250.81v-670.6h-683.6c-23.58,119.99-47.16,239.97-70.73,359.96
		c-22.57-142.33-22.15-282.91-25.95-422.65c-0.45,0.02-0.9,0.05-1.35,0.07c-48.24,2.41-96.57,0.5-144.79-1.65
		c-2.81-0.13-5.62-0.24-8.43-0.36c4.89,133.96,3.12,268.57,0.3,403.18c-12.09,2.2-24.18,4.39-36.27,6.59
		c-21.93-115.05-43.86-230.09-65.8-345.14H3227.15c-21.89,119.54-43.78,239.07-65.67,358.61c-3.58,3.15-6.76,4.29-9.58,3.94
		c-9.87-1.22-20.21-21.14-26.34-90.42c6.03-139.01,12.05-278.01,18.08-417.02c-7.31,0.49-14.63,0.95-21.94,1.34
		c-47.75,2.57-95.88,2.92-143.63-0.63c-3.12,86.61-5.65,173.3-10.08,259.65c-3.87,75.4-0.6,151.17-0.6,226.77
		c-11.5,0.37-23,0.75-34.5,1.12c-23.97-114.45-47.94-228.91-71.9-343.36c-240.82-0.23-481.63-0.45-722.45-0.68
		c-24.77,662.65-49.53,1325.31-74.3,1987.96c-3.79,45.28-15.77,77.31-26.58,82.13c-14.54,6.48-22.76,2-22.77,2l0,0
		c-15.85-6.11-20.37-24.58-20.95-27.13c-27.86-681.68-55.72-1363.36-83.58-2045.05h-770.6v1948.93
		c-71.42-13.05-164.21-41.31-256.04-103.76c-42.25-28.73-102.71-70.74-151.31-147.22c0,0-58.41-91.92-68.74-204.46
		c-27.56-300.25,229.95-722.03,349.83-870.81c20.92-25.96,17.79-62.56-4.02-82.08c-17.78-15.91-45.69-18.42-68.56-5.42
		c-53.89,40.48-128.91,101.56-209.39,184.65c-82.25,84.92-658.48,679.83-459.83,1179.96c100.42,252.82,362.93,398.59,420.54,425.36
		c90.46,42.04,186.49,74.8,282.93,100.8c444.5,119.83,893.68,103.61,1343.14,34.36c1406.45-216.71,2652.16-949.57,3098.18-1363.41
		c378.57-351.26,548.53-748.5,548.53-748.5c21.61-50.5,37.03-92.47,46.13-118.27C6017.75,2174.01,5997.71,2146.34,5973.69,2142.97z"
		/>
	<path class="st0" d="M2033.46,6050.36c-302-143.46-591.68-281.07-887.24-421.47c0-304.84,0-603.34,0-913.26
		c1641.47,103.01,3067.98-424.74,4349.19-1438.41c0,549.85,0,1087.59,0,1651.67C4346.08,5301.21,3193.33,5674.64,2033.46,6050.36z"
		/>
	<g>
		<path class="st0" d="M4748.87,2745.89h-178.92v-1519.7c0-392.84-319.59-712.43-712.43-712.43
			c-390.97,0-709.39,316.59-712.41,706.86l0.2,0v1525.27h-178.92v-1519.7l-0.22,0c0-120.29,23.58-237.03,70.08-346.98
			c44.9-106.15,109.16-201.47,190.99-283.3c81.83-81.83,177.15-146.09,283.3-190.99c109.95-46.5,226.69-70.08,346.98-70.08
			c120.29,0,237.03,23.58,346.98,70.08c106.15,44.9,201.47,109.16,283.3,190.99c81.83,81.83,146.09,177.15,190.99,283.3
			c45.79,108.25,69.35,223.09,70.07,341.41h0.02V2745.89z"/>
	</g>
	<g>
		<path class="st0" d="M3102.19,668c-37.54,0.24-298.45,6.25-473.05,220.94c-121.36,149.22-131.62,313.91-132.62,369.43
			c0.06,0,0.12,0,0.17,0v656.08h-178.92v-651.32l-0.19,0c0-104.47,20.48-205.86,60.87-301.36c39-92.19,94.8-174.98,165.87-246.04
			c71.07-71.07,153.85-126.87,246.04-165.87c39.29-16.62,79.57-29.86,120.66-39.7c36.18-8.66,100.01-21.17,180.7-21.17
			c61.75,0,116.67,7.31,162.9,17.13c-24.22,20.34-50.04,44.08-76.32,71.58C3148.34,609.08,3123.18,639.72,3102.19,668z"/>
		<path class="st0" d="M3548.6,638.05c25.3,18.56,56.97,44.13,90.52,77.69c51.02,51.03,84.71,98.86,103.9,128.67
			c23.9,37.12,44.6,76.31,61.96,117.37c39.78,94.05,60.25,193.81,60.86,296.6h0.01v643.81h-178.92v-639.06
			c0-53.84-7.28-176.66-84.22-304.97c-70.26-117.18-163.17-179.83-209.55-206.91c22.94-21.81,50.62-45.33,83.43-68.45
			C3501.82,665.04,3526.12,650.29,3548.6,638.05z"/>
	</g>
	<path class="st0" d="M3102.19,668"/>
</g>
</svg>
