<?xml version="1.0" encoding="utf-8"?>
<!-- Generator: Adobe Illustrator 24.1.1, SVG Export Plug-In . SVG Version: 6.00 Build 0)  -->
<svg version="1.1" id="Layer_1" xmlns="http://www.w3.org/2000/svg" xmlns:xlink="http://www.w3.org/1999/xlink" x="0px" y="0px"
	 viewBox="0 0 5513.1 1506.8" style="enable-background:new 0 0 5513.1 1506.8;" xml:space="preserve">
<style type="text/css">
	.st0{fill:#FEA200;}
	.st1{fill:#616161;}
</style>
<g>
	<path class="st0" d="M1410.7,524.4c-4-0.6-8.4,1.9-10.7,6.1c-10.2,15.9-22.7,33.3-38.1,51.3c-20.1,23.4-40.1,42.2-58.1,57V486.5
		h-155.3c-5.3,27.3-10.7,54.5-16.1,81.8c-5.1-32.3-5-64.3-5.9-96c-0.1,0-0.2,0-0.3,0c-11,0.5-21.9,0.1-32.9-0.4
		c-0.6,0-1.3,0-1.9-0.1c1.1,30.4,0.7,61,0.1,91.6c-2.8,0.5-5.5,1-8.2,1.5c-5-26.1-10-52.3-14.9-78.4H786.9
		c-5,27.2-9.9,54.3-14.9,81.5c-0.8,0.7-1.5,1-2.2,0.9c-2.2-0.3-4.6-4.8-6-20.5c1.4-31.6,2.7-63.1,4.1-94.7c-1.7,0.1-3.3,0.2-5,0.3
		c-10.8,0.6-21.8,0.7-32.6-0.1c-0.7,19.7-1.3,39.4-2.3,59c-0.9,17.1-0.1,34.3-0.1,51.5c-2.6,0.1-5.2,0.2-7.8,0.3
		c-5.4-26-10.9-52-16.3-78c-54.7,0-109.4-0.1-164.1-0.1c-5.6,150.5-11.3,301-16.9,451.5c-0.9,10.3-3.6,17.6-6,18.7
		c-3.3,1.5-5.2,0.5-5.2,0.5l0,0c-3.6-1.4-4.6-5.6-4.8-6.2c-6.3-154.8-12.6-309.6-19-464.5h-175v442.6c-16.2-3-37.3-9.4-58.1-23.6
		c-9.6-6.5-23.3-16.1-34.4-33.4c0,0-13.3-20.9-15.6-46.4c-6.3-68.2,52.2-164,79.4-197.8c4.8-5.9,4-14.2-0.9-18.6
		c-4-3.6-10.4-4.2-15.6-1.2c-12.2,9.2-29.3,23.1-47.6,41.9c-18.7,19.3-149.6,154.4-104.4,268c22.8,57.4,82.4,90.5,95.5,96.6
		c20.6,9.5,42.4,17,64.3,22.9c100.9,27.2,203,23.5,305,7.8c319.4-49.2,602.3-215.7,703.6-309.7c86-79.8,124.6-170,124.6-170
		c4.9-11.5,8.4-21,10.5-26.9C1420.7,531.5,1416.1,525.2,1410.7,524.4z"/>
	<path class="st0" d="M515.8,1411.8c-68.6-32.6-134.4-63.8-201.5-95.7c0-69.2,0-137,0-207.4c372.8,23.4,696.8-96.5,987.8-326.7
		c0,124.9,0,247,0,375.1C1041,1241.7,779.2,1326.5,515.8,1411.8z"/>
	<g>
		<path class="st0" d="M1132.5,661.3h-40.6V316.2c0-89.2-72.6-161.8-161.8-161.8c-88.8,0-161.1,71.9-161.8,160.5h0v346.4h-40.6
			V316.2h0c0-27.3,5.4-53.8,15.9-78.8c10.2-24.1,24.8-45.8,43.4-64.3c18.6-18.6,40.2-33.2,64.3-43.4c25-10.6,51.5-15.9,78.8-15.9
			s53.8,5.4,78.8,15.9c24.1,10.2,45.8,24.8,64.3,43.4s33.2,40.2,43.4,64.3c10.4,24.6,15.8,50.7,15.9,77.5l0,0L1132.5,661.3
			L1132.5,661.3z"/>
	</g>
	<g>
		<path class="st0" d="M758.5,189.4c-8.5,0.1-67.8,1.4-107.4,50.2c-27.6,33.9-29.9,71.3-30.1,83.9c0,0,0,0,0,0v149h-40.6V324.6h0
			c0-23.7,4.7-46.8,13.8-68.4c8.9-20.9,21.5-39.7,37.7-55.9c16.1-16.1,34.9-28.8,55.9-37.7c8.9-3.8,18.1-6.8,27.4-9
			c8.2-2,22.7-4.8,41-4.8c14,0,26.5,1.7,37,3.9c-5.5,4.6-11.4,10-17.3,16.3C769,176,763.3,183,758.5,189.4z"/>
		<path class="st0" d="M859.9,182.6c5.8,4.2,12.9,10,20.6,17.6c11.6,11.6,19.2,22.4,23.6,29.2c5.4,8.4,10.1,17.3,14.1,26.7
			c9,21.4,13.7,44,13.8,67.4l0,0v146.2h-40.6V324.6c0-12.2-1.7-40.1-19.1-69.3c-16-26.6-37.1-40.8-47.6-47
			c5.2-4.9,11.5-10.3,19-15.6C849.3,188.8,854.8,185.4,859.9,182.6z"/>
	</g>
	<path class="st0" d="M758.5,189.4"/>
</g>
<g>
	<path class="st1" d="M1948.7,981l7.4,32.6h2.5l7-31.8l130.8-441.9h127.1l-204.3,600.8h-123.8l-203.8-600.8h127.1L1948.7,981z"/>
	<path class="st1" d="M2651.8,876.5H2403v171.2h290.9v93h-411.4V539.9h410.6v93H2403v150.6h248.8L2651.8,876.5L2651.8,876.5z"/>
	<path class="st1" d="M2888.3,900.8v239.9h-120.5V539.9h226.6c68.5,0,122.1,15.6,160.7,46.9c38.6,31.2,58,74.8,58,130.7
		c0,31.1-8.1,57.8-24.4,80.1c-16.2,22.3-40,40.3-71.4,54.1c35.5,10.5,61,27.9,76.5,52.4c15.6,24.5,23.3,54.7,23.3,90.7v44.1
		c0,16.8,2.3,34.3,6.8,52.6c4.5,18.3,12.3,31.8,23.3,40.6v8.7h-124.2c-11-8.8-18.2-23.5-21.5-44.1c-3.3-20.6-4.9-40.1-4.9-58.5
		v-42.5c0-30-8.2-53.2-24.6-69.9c-16.4-16.6-39.4-24.9-69.1-24.9L2888.3,900.8L2888.3,900.8z M2888.3,807.8h104
		c33.8,0,59.1-7.2,75.7-21.5c16.6-14.3,25-35.5,25-63.5c0-27.5-8.3-49.4-25-65.6c-16.6-16.2-41.2-24.3-73.7-24.3h-106.1V807.8z"/>
	<path class="st0" d="M3650.9,984c0-23-8.2-41.5-24.6-55.5c-16.4-14-45.1-27.2-86-39.5c-71.5-20.7-125.6-45.2-162.2-73.5
		c-36.6-28.4-54.9-67.2-54.9-116.5c0-49.3,21-89.6,62.9-120.9c42-31.3,95.5-46.9,160.7-46.9c66,0,119.8,17.5,161.4,52.6
		c41.5,35.1,61.6,78.3,60.3,129.8l-0.8,2.5h-116.8c0-27.4-9.3-49.5-27.9-66.5c-18.6-16.9-44.6-25.4-78.2-25.4
		c-32.2,0-57.1,7.1-74.7,21.3c-17.6,14.2-26.4,32.4-26.4,54.5c0,20.2,9.4,36.8,28.3,49.8s51.4,26.7,97.6,41.2
		c66.3,18.5,116.5,42.8,150.6,73.1c34.1,30.3,51.2,70.1,51.2,119.3c0,51.5-20.3,92.1-60.9,121.8s-94.1,44.6-160.7,44.6
		c-65.5,0-122.6-16.8-171.3-50.6c-48.7-33.7-72.4-81-71-141.8l0.8-2.5h117.2c0,35.7,10.9,61.8,32.8,78.4
		c21.9,16.6,52.3,24.9,91.4,24.9c32.7,0,57.8-6.7,75.1-20.2C3642.2,1024.4,3650.9,1006.5,3650.9,984z"/>
	<path class="st0" d="M4184.8,1010.8H3974l-40.9,129.9h-121.7l206.8-600.8h123.4l205.9,600.8h-121.7L4184.8,1010.8z M4003.7,917.8
		h151.4l-74.3-237.2h-2.5L4003.7,917.8z"/>
	<path class="st0" d="M4857,936.1l0.8,2.5c1.1,64.7-18.6,116-59.2,154c-40.6,38-96.9,57-169,57c-72.4,0-131.1-23.3-176.2-69.8
		s-67.7-106.4-67.7-179.6V780.8c0-72.9,22-132.8,66-179.6c44-46.8,101.2-70.2,171.7-70.2c74.3,0,132.3,19.1,174.1,57.2
		s62.2,90.1,61.1,155.8l-0.8,2.5h-117.2c0-39.6-9.5-70-28.5-91s-48.6-31.6-88.7-31.6c-36,0-64.7,14.7-85.8,43.9
		c-21.2,29.3-31.8,66.6-31.8,111.9v120c0,45.9,11.1,83.5,33.4,112.8c22.3,29.3,52.4,43.9,90.4,43.9c37.7,0,65.5-10.1,83.6-30.3
		c18-20.2,27-50.3,27-90.2L4857,936.1L4857,936.1z"/>
	<path class="st0" d="M5313,876.5h-248.8v171.2h290.9v93h-411.4V539.9h410.6v93h-290.1v150.6H5313L5313,876.5L5313,876.5z"/>
</g>
</svg>
